<?xml version="1.0" encoding="utf-8"?>
<!-- Generator: Adobe Illustrator 16.0.0, SVG Export Plug-In . SVG Version: 6.00 Build 0)  -->
<!DOCTYPE svg PUBLIC "-//W3C//DTD SVG 1.1//EN" "http://www.w3.org/Graphics/SVG/1.1/DTD/svg11.dtd">
<svg version="1.1" id="Livello_1" xmlns="http://www.w3.org/2000/svg" xmlns:xlink="http://www.w3.org/1999/xlink" x="0px" y="0px"
	 width="960px" height="560px" viewBox="0 0 960 560" enable-background="new 0 0 960 560" xml:space="preserve">
<g>
	<g>
		<path fill="#828282" d="M585,326.667c-35,0-63,9.333-84,21c32.667,28,46.667,60.666,49,63l2.333,4.666v51.334H739V420
			C736.667,420,699.333,326.667,585,326.667z"/>
	</g>
	<g>
		<circle fill="#828282" cx="585" cy="198.333" r="81.667"/>
	</g>
</g>
<g>
	<path fill="#828282" d="M293.333,198.333c0-44.333,37.333-81.667,81.667-81.667s81.667,37.333,81.667,81.667
		C456.667,242.667,419.333,280,375,280S293.333,242.667,293.333,198.333z M375,326.667C260.667,326.667,223.333,420,223.333,420
		v46.667h303.333V420C526.667,420,489.333,326.667,375,326.667z"/>
</g>
</svg>
